<svg width="24" height="24" viewBox="0 0 24 24" fill="none" xmlns="http://www.w3.org/2000/svg">
<path d="M20.7653 12.1783C20.7653 13.4884 20.4224 14.7457 19.7982 15.8404L18.6507 14.693C19.02 13.9192 19.2179 13.062 19.2179 12.1739C19.2179 9.83511 17.8374 7.71613 15.6921 6.76214C15.4107 6.63905 15.2305 6.35769 15.2305 6.05875C15.2305 5.79497 15.358 5.55318 15.5822 5.4081C15.802 5.26742 16.0745 5.24104 16.3163 5.35095C19.02 6.54673 20.7697 9.22404 20.7697 12.1739L20.7653 12.1783Z" fill="white" fill-opacity="0.6"/>
<path d="M17.6352 12.1871C17.6352 12.6311 17.5561 13.0575 17.4066 13.4488L15.2305 11.2726V8.77557C16.6329 9.27235 17.6352 10.6132 17.6352 12.1871Z" fill="white" fill-opacity="0.6"/>
<path d="M13.3793 4.44965V9.42179L9.96338 6.00592L12.5396 4.032C12.8825 3.77263 13.3793 4.01442 13.3793 4.44965Z" fill="white" fill-opacity="0.6"/>
<path d="M5.02667 8.42828L13.3795 16.7855V20.0256C13.3795 20.4608 12.8827 20.707 12.5398 20.4432L6.79835 16.0514H4.09906C3.49238 16.0514 3 15.559 3 14.9523V9.52734C3 8.92066 3.48798 8.42828 4.09906 8.42828H5.02227H5.02667Z" fill="white" fill-opacity="0.6"/>
<path d="M20.765 21.3576C20.5408 21.3576 20.3209 21.2741 20.1495 21.1026L3.52732 4.48043C3.18881 4.14192 3.18881 3.59239 3.52732 3.25388C3.86583 2.91537 4.41536 2.91537 4.75387 3.25388L21.376 19.8761C21.7146 20.2146 21.7146 20.7641 21.376 21.1026C21.2046 21.2741 20.9848 21.3576 20.7606 21.3576H20.765Z" fill="white" fill-opacity="0.6"/>
</svg>
