<svg width="104" height="104" viewBox="0 0 104 104" fill="none" xmlns="http://www.w3.org/2000/svg">
    <path fill-rule="evenodd" clip-rule="evenodd"
        d="M55.64 3.64C55.64 2.67461 55.2565 1.74876 54.5739 1.06613C53.8912 0.383499 52.9654 0 52 0C51.0346 0 50.1088 0.383499 49.4261 1.06613C48.7435 1.74876 48.36 2.67461 48.36 3.64V24.44C48.36 37.44 37.96 48.36 24.44 48.36H3.64C2.67461 48.36 1.74876 48.7435 1.06613 49.4261C0.383499 50.1088 0 51.0346 0 52C0 52.9654 0.383499 53.8912 1.06613 54.5739C1.74876 55.2565 2.67461 55.64 3.64 55.64H24.44C37.44 55.64 48.36 66.04 48.36 79.56V100.36C48.36 101.325 48.7435 102.251 49.4261 102.934C50.1088 103.617 51.0346 104 52 104C52.9654 104 53.8912 103.617 54.5739 102.934C55.2565 102.251 55.64 101.325 55.64 100.36V79.56C55.64 66.56 66.04 55.64 79.56 55.64H100.36C101.325 55.64 102.251 55.2565 102.934 54.5739C103.617 53.8912 104 52.9654 104 52C104 51.0346 103.617 50.1088 102.934 49.4261C102.251 48.7435 101.325 48.36 100.36 48.36H79.56C66.56 48.36 55.64 37.96 55.64 24.44V3.64Z"
        fill="#0D92F4" />
</svg>