<svg width="47" height="47" viewBox="0 0 47 47" fill="none" xmlns="http://www.w3.org/2000/svg">
<rect y="0.200195" width="46.08" height="46.08" rx="3" fill="#080618"/>
<mask id="path-2-inside-1_1_256" fill="white">
<path d="M0 3.0802C0 1.48962 1.28942 0.200195 2.88 0.200195H43.2C44.7906 0.200195 46.08 1.48962 46.08 3.0802V43.4002C46.08 44.9908 44.7906 46.2802 43.2 46.2802H2.88C1.28942 46.2802 0 44.9908 0 43.4002V3.0802Z"/>
</mask>
<path d="M2.88 1.2002H43.2V-0.799805H2.88V1.2002ZM45.08 3.0802V43.4002H47.08V3.0802H45.08ZM43.2 45.2802H2.88V47.2802H43.2V45.2802ZM1 43.4002V3.0802H-1V43.4002H1ZM2.88 45.2802C1.84171 45.2802 1 44.4385 1 43.4002H-1C-1 45.5431 0.737139 47.2802 2.88 47.2802V45.2802ZM45.08 43.4002C45.08 44.4385 44.2383 45.2802 43.2 45.2802V47.2802C45.3429 47.2802 47.08 45.5431 47.08 43.4002H45.08ZM43.2 1.2002C44.2383 1.2002 45.08 2.0419 45.08 3.0802H47.08C47.08 0.937329 45.3429 -0.799805 43.2 -0.799805V1.2002ZM2.88 -0.799805C0.737134 -0.799805 -1 0.937335 -1 3.0802H1C1 2.0419 1.84171 1.2002 2.88 1.2002V-0.799805Z" fill="#0D92F4" mask="url(#path-2-inside-1_1_256)"/>
<path d="M23.0354 32.2212C28.0036 32.2212 32.0312 28.1935 32.0312 23.2253C32.0312 18.2571 28.0036 14.2295 23.0354 14.2295C18.0671 14.2295 14.0396 18.2571 14.0396 23.2253C14.0396 28.1935 18.0671 32.2212 23.0354 32.2212Z" stroke="#0D92F4" stroke-width="0.899742"/>
<path d="M23.0352 26.3747V21.876" stroke="#0D92F4" stroke-width="0.899742"/>
<path d="M23.0352 19.627V20.5267" stroke="#0D92F4" stroke-width="0.899742"/>
</svg>
