<svg width="244" height="40" viewBox="0 0 244 40" fill="none" xmlns="http://www.w3.org/2000/svg">
<path d="M14.6567 25.3433C11.3678 22.0544 8.78477 18.223 6.9785 13.9539C5.1075 9.53071 4.15813 4.83625 4.15813 0H0V40H4.15813V17.7668C5.71781 20.9139 7.67512 23.8268 10.0085 26.4622V39.9969H14.1666V30.534C17.249 33.1479 20.6858 35.2655 24.4278 36.8467C29.3658 38.9366 34.6058 39.9938 40 39.9938V35.8357C35.1638 35.8357 30.4693 34.8863 26.0461 33.0153C21.777 31.2091 17.9456 28.626 14.6567 25.3371V25.3433Z" fill="white"/>
<path d="M35.8419 25.4204C33.8044 25.0875 31.8471 24.5172 29.9977 23.7374V0H25.8396V21.5057C18.858 16.8945 14.2406 8.97588 14.2406 0H10.0825C10.0825 7.98952 13.1957 15.5044 18.8456 21.1543C24.4956 26.8043 32.0074 29.9175 40 29.9175V0H35.8419V25.4204Z" fill="white"/>
<path d="M81.9326 25.1029H70.457V10.9887H66.5793V25.3032C66.5793 25.969 66.7458 26.5886 67.0787 27.1557C67.4116 27.7229 67.8616 28.1729 68.4288 28.5058C68.9959 28.8387 69.6124 29.0052 70.2813 29.0052H82.1546C82.8204 29.0052 83.4338 28.8387 83.9948 28.5058C84.5527 28.1729 85.0027 27.7229 85.3448 27.1557C85.687 26.5886 85.8565 25.9721 85.8565 25.3032V10.9887H81.9265V25.1029H81.9326Z" fill="white"/>
<path d="M106.758 11.5158C106.2 11.1829 105.578 11.0164 104.893 11.0164H89.3396V29.0082H93.2172V23.947L101.164 23.9316L104.002 29.0113H108.463L105.562 23.8607C105.988 23.7867 106.388 23.6449 106.758 23.423C107.316 23.0901 107.766 22.6401 108.108 22.0729C108.45 21.5057 108.62 20.8893 108.62 20.2204V14.7214C108.62 14.0556 108.447 13.4361 108.108 12.8689C107.766 12.3018 107.316 11.8517 106.758 11.5188V11.5158ZM104.693 20.017H93.2172V14.894H104.693V20.017Z" fill="white"/>
<path d="M129.515 11.4911C128.957 11.1582 128.344 10.9887 127.675 10.9887H115.799C115.13 10.9887 114.513 11.1551 113.946 11.4911C113.379 11.824 112.929 12.2709 112.596 12.8288C112.263 13.3868 112.097 14.0094 112.097 14.6937V25.3032C112.097 25.969 112.263 26.5886 112.596 27.1557C112.929 27.7229 113.379 28.1729 113.946 28.5058C114.513 28.8387 115.13 29.0052 115.799 29.0052H127.675C128.341 29.0052 128.954 28.8387 129.515 28.5058C130.073 28.1729 130.523 27.7229 130.865 27.1557C131.208 26.5886 131.377 25.9721 131.377 25.3032V14.6937C131.377 14.0094 131.204 13.3868 130.865 12.8288C130.523 12.2709 130.073 11.824 129.515 11.4911ZM127.45 25.1029H115.974V14.894H127.45V25.1029Z" fill="white"/>
<path d="M138.787 21.9496H150.287V18.0473H134.857V29.0082H152.763V25.1029H138.787V21.9496Z" fill="white"/>
<path d="M152.763 10.9918H134.857V14.8971H152.763V10.9918Z" fill="white"/>
<path d="M49.1269 21.9496H60.6273V18.0473H45.1969V29.0082H63.1024V25.1029H49.1269V21.9496Z" fill="white"/>
<path d="M63.1024 10.9918H45.1969V14.8971H63.1024V10.9918Z" fill="white"/>
<path d="M184.674 21.9496H196.175V18.0473H180.744V29.0082H198.65V25.1029H184.674V21.9496Z" fill="white"/>
<path d="M198.65 10.9918H180.744V14.8971H198.65V10.9918Z" fill="white"/>
<path d="M166.766 24.0795L159.211 10.9918H154.708L165.141 29.0082H168.369L178.803 10.9918H174.324L166.766 24.0795Z" fill="white"/>
<path d="M224.465 10.9918V14.894H231.943V29.0082H235.848V14.894H243.326V10.9918H224.465Z" fill="white"/>
<path d="M217.089 25.1029H216.531L209.075 10.9918H202.127V29.0082H206.008V14.894H206.528L214.204 29.0082H220.988V10.9918H217.089V25.1029Z" fill="white"/>
</svg>
