<svg width="55" height="56" viewBox="0 0 55 56" fill="none" xmlns="http://www.w3.org/2000/svg">
<g clip-path="url(#clip0_1_364)">
<path d="M20.1524 35.0468C15.6304 30.5239 12.0781 25.2552 9.59586 19.3855C7.02161 13.3027 5.71763 6.84748 5.71763 0.199219H0V55.1992H5.71763V24.6296C7.86209 28.9577 10.5556 32.9606 13.7609 36.5875V55.1992H19.4786V42.1886C23.7156 45.7809 28.4434 48.6939 33.5864 50.8702C40.3776 53.7432 47.5823 55.1992 55 55.1992V49.4816C48.3517 49.4816 41.8965 48.1767 35.8137 45.6034C29.944 43.1211 24.6744 39.5688 20.1524 35.0468Z" fill="white"/>
<path d="M49.2824 0.199219V35.1543C46.4814 34.6981 43.7897 33.914 41.2482 32.8395V0.199219H35.5305V29.7717C25.9292 23.4294 19.5815 12.5423 19.5815 0.199219H13.8638C13.8638 11.1874 18.1427 21.5172 25.9128 29.2873C33.682 37.0565 44.0128 41.3354 55.0009 41.3354V0.199219H49.2833H49.2824Z" fill="white"/>
</g>
<defs>
<clipPath id="clip0_1_364">
<rect width="55" height="55" fill="white" transform="translate(0 0.199219)"/>
</clipPath>
</defs>
</svg>
