<svg width="24" height="24" viewBox="0 0 24 24" fill="none" xmlns="http://www.w3.org/2000/svg">
<path d="M15.7405 17.7826C15.4358 17.916 15.2358 18.2207 15.2358 18.5492C15.2358 18.8348 15.3787 19.0967 15.6167 19.2491C15.7548 19.3395 15.9119 19.3871 16.0738 19.3871C16.1881 19.3871 16.3023 19.3633 16.4118 19.3157C19.3399 18.0207 21.2348 15.1212 21.2348 11.9265C21.2348 8.73187 19.3399 5.83238 16.4118 4.53737C16.1547 4.42311 15.8548 4.44691 15.6215 4.59927C15.3834 4.75638 15.2406 5.01824 15.2406 5.3039C15.2406 5.63242 15.4358 5.93236 15.7453 6.07044C18.0639 7.09883 19.5636 9.39842 19.5636 11.9265C19.5636 14.4547 18.0639 16.7543 15.7453 17.7826H15.7405Z" fill="white" fill-opacity="0.6"/>
<path d="M17.845 11.936C17.845 13.6405 16.7595 15.0879 15.2407 15.6259V8.24622C16.7595 8.78422 17.845 10.2363 17.845 11.9408V11.936Z" fill="white" fill-opacity="0.6"/>
<path d="M12.3267 3.10913L6.11356 7.86543H3.19027C2.53324 7.86543 2 8.39867 2 9.05569V14.9356C2 15.5926 2.53324 16.1259 3.19027 16.1259H6.11356L12.3267 20.8822C12.6981 21.1678 13.2361 20.9012 13.2361 20.4346V3.56619C13.2361 3.09485 12.6981 2.83299 12.3267 3.11865V3.10913Z" fill="white" fill-opacity="0.6"/>
</svg>
