<svg width="18" height="18" viewBox="0 0 18 18" fill="black" xmlns="http://www.w3.org/2000/svg">
<path d="M14.0941 5.73448C13.9065 6.14706 13.3205 6.14706 13.133 5.73448L12.8427 5.09585C12.7899 4.97966 12.6968 4.88654 12.5806 4.83373L11.9419 4.54344C11.5294 4.35591 11.5294 3.76988 11.9419 3.58235L12.5806 3.29206C12.6968 3.23925 12.7899 3.14613 12.8427 3.02994L13.133 2.39131C13.3205 1.97873 13.9065 1.97873 14.0941 2.39131L14.3844 3.02994C14.4372 3.14613 14.5303 3.23925 14.6465 3.29206L15.2851 3.58235C15.6977 3.76988 15.6977 4.35591 15.2851 4.54344L14.6465 4.83373C14.5303 4.88654 14.4372 4.97966 14.3844 5.09585L14.0941 5.73448ZM14.0941 15.2852C13.9065 15.6978 13.3205 15.6978 13.133 15.2852L12.8427 14.6466C12.7899 14.5304 12.6968 14.4373 12.5806 14.3845L11.9419 14.0942C11.5294 13.9067 11.5294 13.3206 11.9419 13.1331L12.5806 12.8428C12.6968 12.79 12.7899 12.6969 12.8427 12.5807L13.133 11.9421C13.3205 11.5295 13.9065 11.5295 14.0941 11.9421L14.3844 12.5807C14.4372 12.6969 14.5303 12.79 14.6465 12.8428L15.2851 13.1331C15.6977 13.3206 15.6977 13.9067 15.2851 14.0942L14.6465 14.3845C14.5303 14.4373 14.4372 14.5304 14.3844 14.6466L14.0941 15.2852ZM7.27211 13.2387C7.08457 13.6512 6.49855 13.6512 6.31102 13.2387L5.16798 10.724C5.11517 10.6078 5.02205 10.5147 4.90586 10.4619L2.39118 9.31882C1.97861 9.13129 1.97861 8.54526 2.39118 8.35773L4.90586 7.21469C5.02205 7.16188 5.11517 7.06876 5.16798 6.95258L6.31102 4.4379C6.49855 4.02532 7.08457 4.02533 7.27211 4.4379L8.41514 6.95258C8.46796 7.06876 8.56107 7.16188 8.67726 7.21469L11.1919 8.35773C11.6045 8.54526 11.6045 9.13129 11.1919 9.31882L8.67726 10.4619C8.56107 10.5147 8.46796 10.6078 8.41514 10.724L7.27211 13.2387Z" fill="black"/>
</svg>
